# xmcd
#
# Track frame offsets: 
#        150
#        22352
#        53307
#        66172
#        85647
#        111652
#        137652
#        158282
#        186992
#        215777
#        242147
#        274362
#        298267
#        323147
#
# Disc length: 4791 seconds
#
# Revision: 6
# Processed by: cddbd v1.5.2PL0 Copyright (c) Steve Scherf et al.
# Submitted via: ExactAudioCopy v0.99pb5
#
DISCID=d712b50e
DTITLE=Yes - Yes (SHM-CD WPCR 13512)
DYEAR=1969
DGENRE=Progressive Rock
TTITLE0=Beyond And Before
TTITLE1=I See You
TTITLE2=Yesterday And Today
TTITLE3=Looking Around
TTITLE4=Harold Land
TTITLE5=Every Little Thing
TTITLE6=Sweetness
TTITLE7=Survival
TTITLE8=Everydays (single version)
TTITLE9=Dear Father (early version #2)
TTITLE10=Something's Coming (UK single)
TTITLE11=Everydays (early version)
TTITLE12=Dear Father (early version #1)
TTITLE13=Something's Coming (early version)
EXTD=the \ninexpEXPERT REVIEW: Yes' debut album is surprisingly stron
EXTD=g, givenD) a miniature LP style sleeve for initial pressing. \n\n
EXTD=AMG  edition featuring High Definition Digital Rematersing \n(HDC
EXTD=003\n\nAlbum Details (Mini LP CD Packaging]\nJapanese limited98\n
EXTD=Remastered, Expanded Rhino Edition Released January 14, 2 Septemb
EXTD=er 20, 1994\nJapanese Mini LP Version Released March 31, 19ld CD 
EXTD=Edition Released N/A\nRemastered Edition Released YEAR: 2003 ID3G
EXTD=:  92 Originally Released October 15, 1969\nGo
EXTT0=
EXTT1=
EXTT2=
EXTT3=
EXTT4=
EXTT5=
EXTT6=
EXTT7=
EXTT8=
EXTT9=
EXTT10=
EXTT11=
EXTT12=
EXTT13=
PLAYORDER=
